<svg version="1.1" id="Capa_1" xmlns="http://www.w3.org/2000/svg" xmlns:xlink="http://www.w3.org/1999/xlink" x="0px" y="0px"
	 viewBox="0 0 405.333 405.333" style="enable-background:new 0 0 405.333 405.333;" xml:space="preserve">
		<path d="M202.667,0C108.373,0,32,10.667,32,85.333v213.333c0,18.88,8.32,35.627,21.333,47.36V384
			c0,11.733,9.6,21.333,21.333,21.333H96c11.84,0,21.333-9.6,21.333-21.333v-21.333H288V384c0,11.733,9.493,21.333,21.333,21.333
			h21.333c11.733,0,21.333-9.6,21.333-21.333v-37.973c13.013-11.733,21.333-28.48,21.333-47.36V85.333
			C373.333,10.667,296.96,0,202.667,0z M106.667,320c-17.707,0-32-14.293-32-32s14.293-32,32-32s32,14.293,32,32
			S124.373,320,106.667,320z M298.667,320c-17.707,0-32-14.293-32-32s14.293-32,32-32s32,14.293,32,32S316.373,320,298.667,320z
			 M330.667,192h-256V85.333h256V192z"/>
</svg>
