<?xml version="1.0"?>
<svg xmlns="http://www.w3.org/2000/svg" xmlns:xlink="http://www.w3.org/1999/xlink" xmlns:svgjs="http://svgjs.com/svgjs" version="1.1" width="24" height="24" x="0" y="0" viewBox="0 0 496 496" style="enable-background:new 0 0 512 512" xml:space="preserve" class=""><g><path xmlns="http://www.w3.org/2000/svg" d="m488 248c0 132.546875-107.453125 240-240 240s-240-107.453125-240-240 107.453125-240 240-240 240 107.453125 240 240zm0 0" fill="#be91eb" data-original="#ffda44" style="" class=""/><path xmlns="http://www.w3.org/2000/svg" d="m248 496c-136.964844 0-248-111.035156-248-248s111.035156-248 248-248 248 111.035156 248 248c-.160156 136.902344-111.097656 247.839844-248 248zm0-480c-128.128906 0-232 103.871094-232 232s103.871094 232 232 232 232-103.871094 232-232c-.140625-128.070312-103.929688-231.859375-232-232zm0 0" fill="#663399" data-original="#231f20" style="" class=""/></g></svg>
